<svg width="407" height="90" viewBox="0 0 407 90" fill="none" xmlns="http://www.w3.org/2000/svg">
<path d="M128.44 69V24.84H145.4C156.92 24.84 162.68 30.6 162.68 42.12V51.72C162.68 63.24 156.92 69 145.4 69H128.44ZM136.248 61.96H145.848C151.864 61.96 154.872 58.952 154.872 52.936V40.904C154.872 34.888 151.864 31.88 145.848 31.88H136.248V61.96ZM171.293 69V60.616H179.677V69H171.293ZM185.404 67.464L199.036 24.84H211.132L224.764 67.464L223.74 69H217.276L214.204 59.208H195.9L192.892 69H186.428L185.404 67.464ZM198.076 52.168H212.092L205.692 31.88H204.476L198.076 52.168ZM230.48 69V60.616H238.864V69H230.48ZM248.815 69V24.84H258.351L271.791 53.448L285.167 24.84H294.767V69H286.959V38.088L275.247 62.984H268.271L256.623 38.088V69H248.815ZM304.668 69V60.616H313.052V69H304.668ZM323.003 69V24.84H344.315C351.227 24.84 354.683 28.296 354.683 35.208V43.72C354.683 50.632 351.227 54.088 344.315 54.088H330.811V69H323.003ZM330.811 47.048H344.059C345.936 47.048 346.875 46.1093 346.875 44.232V34.696C346.875 32.8187 345.936 31.88 344.059 31.88H330.811V47.048ZM358.168 69V60.616H366.552V69H358.168Z" fill="#ECE0FF"/>
<path d="M0 52.5H5.5M5.5 52.5V34H17V52.5V74H28.5V17.5H39V66.5H51V32.5H61.5V88.5H73.5V1H83.5V76.5H95V52.5H99H5.5Z" stroke="white" stroke-width="2"/>
<line x1="111.5" y1="1" x2="111.5" y2="89" stroke="white" stroke-width="3"/>
</svg>
